<svg xmlns="http://www.w3.org/2000/svg" enable-background="new 0 0 512 512" viewBox="0 0 512 512" id="recipe-book" width="512" height="512"><g>
    <g>
      <path fill="#283954" d="M462.25,394.75V38.5c0-20.678-16.822-37.5-37.5-37.5h-307.5c-20.678,0-37.5,16.822-37.5,37.5v15
			c0,4.143,3.357,7.5,7.5,7.5s7.5-3.357,7.5-7.5v-15c0-12.406,10.094-22.5,22.5-22.5h37.5v352.5H151
			c-22.847,0-43.203,10.822-56.25,27.596V338.5c0-4.143-3.357-7.5-7.5-7.5s-7.5,3.357-7.5,7.5
			c0.094,111.393-0.22,105.053,0.241,106.858C82.864,482.031,113.602,511,151,511h285c14.475,0,26.25-11.775,26.25-26.25
			c0-14.289-11.478-25.94-25.697-26.236c4.213-12.088,4.303-25.223,0.008-37.528C450.777,420.685,462.25,409.036,462.25,394.75z
			 M169.75,16h255c12.406,0,22.5,10.094,22.5,22.5v332.538c-3.412-1.625-7.226-2.538-11.25-2.538H169.75V16z M420.306,421
			c5.903,11.952,5.897,25.565,0.001,37.5H151c-10.339,0-18.75-8.411-18.75-18.75S140.661,421,151,421H420.306z M436,406H151
			c-18.609,0-33.75,15.141-33.75,33.75S132.391,473.5,151,473.5h285c6.203,0,11.25,5.047,11.25,11.25S442.203,496,436,496H151
			c-31.017,0-56.25-25.233-56.25-56.25S119.983,383.5,151,383.5h285c6.203,0,11.25,5.047,11.25,11.25S442.203,406,436,406z"></path>
      <path fill="#283954" d="M87.25 226c4.143 0 7.5-3.357 7.5-7.5v-45c0-4.143-3.357-7.5-7.5-7.5s-7.5 3.357-7.5 7.5v45C79.75 222.643 83.107 226 87.25 226zM87.25 308.5c4.143 0 7.5-3.357 7.5-7.5v-45c0-4.143-3.357-7.5-7.5-7.5s-7.5 3.357-7.5 7.5v45C79.75 305.143 83.107 308.5 87.25 308.5zM87.25 143.5c4.143 0 7.5-3.357 7.5-7.5V91c0-4.143-3.357-7.5-7.5-7.5s-7.5 3.357-7.5 7.5v45C79.75 140.143 83.107 143.5 87.25 143.5z"></path>
      <path fill="#3a98ff" d="M98.5 46H76c-14.475 0-26.25 11.775-26.25 26.25S61.525 98.5 76 98.5h22.5c14.475 0 26.25-11.775 26.25-26.25S112.975 46 98.5 46zM98.5 83.5H76c-6.203 0-11.25-5.047-11.25-11.25S69.797 61 76 61h22.5c6.203 0 11.25 5.047 11.25 11.25S104.703 83.5 98.5 83.5zM98.5 128.5H76c-14.475 0-26.25 11.775-26.25 26.25S61.525 181 76 181h22.5c14.475 0 26.25-11.775 26.25-26.25S112.975 128.5 98.5 128.5zM98.5 166H76c-6.203 0-11.25-5.047-11.25-11.25S69.797 143.5 76 143.5h22.5c6.203 0 11.25 5.047 11.25 11.25S104.703 166 98.5 166zM98.5 211H76c-14.475 0-26.25 11.775-26.25 26.25S61.525 263.5 76 263.5h22.5c14.475 0 26.25-11.775 26.25-26.25S112.975 211 98.5 211zM98.5 248.5H76c-6.203 0-11.25-5.047-11.25-11.25S69.797 226 76 226h22.5c6.203 0 11.25 5.047 11.25 11.25S104.703 248.5 98.5 248.5zM98.5 293.5H76c-14.475 0-26.25 11.775-26.25 26.25S61.525 346 76 346h22.5c14.475 0 26.25-11.775 26.25-26.25S112.975 293.5 98.5 293.5zM98.5 331H76c-6.203 0-11.25-5.047-11.25-11.25S69.797 308.5 76 308.5h22.5c6.203 0 11.25 5.047 11.25 11.25S104.703 331 98.5 331zM235.868 143.708V226c0 4.143 3.357 7.5 7.5 7.5h130.264c4.143 0 7.5-3.357 7.5-7.5v-82.292c13.338-7.385 21.71-21.375 21.71-36.919 0-27.143-25.432-47.404-51.98-41.104C343.392 49.354 326.947 38.5 308.5 38.5s-34.892 10.854-42.361 27.186c-26.512-6.291-51.98 13.929-51.98 41.104C214.158 122.333 222.53 136.323 235.868 143.708zM250.868 218.5V196h115.264v22.5H250.868zM256.395 79.553c3.897 0 7.67.813 11.214 2.418 4.237 1.913 9.171-.443 10.348-4.93C281.592 63.181 294.151 53.5 308.5 53.5s26.908 9.681 30.544 23.541c1.175 4.478 6.107 6.848 10.348 4.93 3.544-1.604 7.316-2.418 11.214-2.418 15.019 0 27.236 12.218 27.236 27.236 0 11.151-6.683 21.063-17.024 25.25-2.832 1.147-4.686 3.896-4.686 6.952V181H250.868v-42.009c0-3.056-1.854-5.805-4.686-6.952-10.342-4.188-17.024-14.099-17.024-25.25C229.158 91.771 241.376 79.553 256.395 79.553zM199.75 271h217.5c4.143 0 7.5-3.357 7.5-7.5s-3.357-7.5-7.5-7.5h-217.5c-4.143 0-7.5 3.357-7.5 7.5S195.607 271 199.75 271zM417.25 293.5h-217.5c-4.143 0-7.5 3.357-7.5 7.5v37.5c0 4.143 3.357 7.5 7.5 7.5h217.5c4.143 0 7.5-3.357 7.5-7.5V301C424.75 296.857 421.393 293.5 417.25 293.5zM409.75 331h-202.5v-22.5h202.5V331z"></path>
    </g>
  </g></svg>