<svg xmlns="http://www.w3.org/2000/svg" version="1.1" xmlns:xlink="http://www.w3.org/1999/xlink" id="SvgjsSvg1001" width="288" height="288" xmlns:svgjs="http://svgjs.com/svgjs"><defs id="SvgjsDefs1002"></defs><g id="SvgjsG1008"><svg xmlns="http://www.w3.org/2000/svg" viewBox="0 0 54.27 42.04" width="288" height="288"><path d="M27.44,5.29c-8.12,0-14.72,6.6-14.72,14.71s6.6,14.72,14.72,14.72,14.71-6.6,14.71-14.72-6.6-14.71-14.71-14.71Z" fill="#26ae60" class="svgShape color000000-0 selectable"></path><path d="M27.44.58C16.73.58 8.01 9.29 8.01 20s8.72 19.43 19.43 19.43 19.42-8.72 19.42-19.43S38.15.58 27.44.58ZM27.44 35.56c-8.58 0-15.56-6.97-15.56-15.56s6.97-15.55 15.56-15.55 15.55 6.97 15.55 15.55-6.97 15.56-15.55 15.56ZM53.44 1.43c0-.39-.24-.89-.54-1.16-.2-.18-.39-.22-.48-.21h-.08c-.57 0-.88.76-.95 1-1.93 5.65-2.52 10.66-2.67 13.87-.09 1.93.3 3.83 1.16 5.53l1.06 1.77c.38.63.56 1.39.53 2.15l-.76 15.57c-.02.57.19 1.11.57 1.5.33.34.76.53 1.21.53s.88-.18 1.21-.52c.38-.39.58-.93.57-1.49l-.83-38.53ZM5.53.06c-.16 0-.28.13-.29.28l-.55 10.12-.24-10.17c0-.16-.13-.28-.29-.28-.13.02-.28.12-.29.28l-.62 10.49L2.97.29c0-.16-.13-.28-.29-.28-.15.02-.28.12-.29.28l-.6 10.53L1.59.29C1.59.13 1.47 0 1.31 0c-.18-.03-.28.11-.3.27L0 12.81c-.05.64.13 1.29.52 1.81l1.37 1.84c.34.46.52 1.03.49 1.6l-.93 22.17c-.03.48.15.93.49 1.27.33.34.77.54 1.25.54s.92-.19 1.25-.53c.33-.34.51-.8.49-1.27l-.82-22.21c-.03-.56.15-1.13.49-1.58l1.39-1.87c.39-.52.58-1.16.54-1.81L5.83.34c0-.15-.14-.28-.29-.28Z" fill="#1a6139" class="svgShape color000000-1 selectable"></path></svg></g></svg>